<svg id="visual" viewBox="0 0 900 600" width="900" height="600" xmlns="http://www.w3.org/2000/svg" xmlns:xlink="http://www.w3.org/1999/xlink" version="1.1"><rect x="0" y="0" width="900" height="600" fill="#060121"></rect><defs><linearGradient id="grad1_0" x1="33.3%" y1="0%" x2="100%" y2="100%"><stop offset="20%" stop-color="#435d58" stop-opacity="1"></stop><stop offset="80%" stop-color="#435d58" stop-opacity="1"></stop></linearGradient></defs><defs><linearGradient id="grad1_1" x1="33.3%" y1="0%" x2="100%" y2="100%"><stop offset="20%" stop-color="#435d58" stop-opacity="1"></stop><stop offset="80%" stop-color="#060121" stop-opacity="1"></stop></linearGradient></defs><defs><linearGradient id="grad2_0" x1="0%" y1="0%" x2="66.7%" y2="100%"><stop offset="20%" stop-color="#435d58" stop-opacity="1"></stop><stop offset="80%" stop-color="#435d58" stop-opacity="1"></stop></linearGradient></defs><defs><linearGradient id="grad2_1" x1="0%" y1="0%" x2="66.7%" y2="100%"><stop offset="20%" stop-color="#060121" stop-opacity="1"></stop><stop offset="80%" stop-color="#435d58" stop-opacity="1"></stop></linearGradient></defs><g transform="translate(900, 0)"><path d="M0 216.3C-36.1 208 -72.2 199.7 -105.5 182.7C-138.8 165.7 -169.3 140.1 -187.3 108.2C-205.4 76.3 -210.8 38.1 -216.3 0L0 0Z" fill="#0c3341"></path><path d="M0 108.2C-18 104 -36.1 99.9 -52.7 91.4C-69.4 82.9 -84.7 70 -93.7 54.1C-102.7 38.1 -105.4 19.1 -108.2 0L0 0Z" fill="#435d58"></path></g><g transform="translate(0, 600)"><path d="M0 -216.3C34.2 -204.8 68.5 -193.3 102 -176.7C135.5 -160.1 168.4 -138.5 187.3 -108.2C206.3 -77.9 211.3 -38.9 216.3 0L0 0Z" fill="#0c3341"></path><path d="M0 -108.2C17.1 -102.4 34.2 -96.6 51 -88.3C67.8 -80 84.2 -69.2 93.7 -54.1C103.1 -38.9 105.7 -19.5 108.2 0L0 0Z" fill="#435d58"></path></g></svg>